# xmcd
#
# Track frame offsets:
#	150
#	10830
#	24765
#	35628
#	48018
#	60888
#	74360
#	84755
#	95623
#	108873
#	123065
#	135315
#	146848
#	158793
#	172585
#	183208
#	198035
#	210193
#	222290
#	232115
#	243300
#	256058
#	268645
#	278775
#	289575
#	301875
#
# Disc length: 4166 seconds
#
# Revision: 4
# Processed by: cddbd v1.5.2PL0 Copyright (c) Steve Scherf et al.
# Submitted via: EZCDAudioConverter 1.2.2.1
#
DISCID=4710441a
DTITLE=Chuck Berry - Gold [CD1]
DYEAR=2005
DGENRE=Rockm
TTITLE0=Maybellene
TTITLE1=Wee Wee Hours
TTITLE2=Thirty Days
TTITLE3=You Can't Catch Me
TTITLE4=Downbound Train
TTITLE5=No Money Down
TTITLE6=Brown Eyed Handsome Man
TTITLE7=Roll Over Beethoven
TTITLE8=Too Much Monkey Business
TTITLE9=Havana Moon
TTITLE10=School Day
TTITLE11=Rock And Roll Music
TTITLE12=Oh Baby Doll
TTITLE13=Sweet Little Sixteen
TTITLE14=Guitar Boogie
TTITLE15=Reelin' And Rockin'
TTITLE16=Johnny B. Goode
TTITLE17=Around And Around
TTITLE18=Beautiful Delilah
TTITLE19=House Of Blue Lights
TTITLE20=Carol
TTITLE21=Jo Jo Gunne
TTITLE22=Memphis, Tennessee
TTITLE23=Sweet Little Rock and Roller
TTITLE24=Little Queenie
TTITLE25=Almost Grown
EXTD=
EXTT0=
EXTT1=
EXTT2=
EXTT3=
EXTT4=
EXTT5=
EXTT6=
EXTT7=
EXTT8=
EXTT9=
EXTT10=
EXTT11=
EXTT12=
EXTT13=
EXTT14=
EXTT15=
EXTT16=
EXTT17=
EXTT18=
EXTT19=
EXTT20=
EXTT21=
EXTT22=
EXTT23=
EXTT24=
EXTT25=
PLAYORDER=
